<?xml version="1.0" encoding="utf-8"?>
<!-- Generator: Adobe Illustrator 27.3.1, SVG Export Plug-In . SVG Version: 6.00 Build 0)  -->
<svg version="1.1" id="Layer_1" xmlns="http://www.w3.org/2000/svg" xmlns:xlink="http://www.w3.org/1999/xlink" x="0px" y="0px"
	 viewBox="0 0 2040.94 2040.94" style="enable-background:new 0 0 2040.94 2040.94;" xml:space="preserve">
<style type="text/css">
	.st0{fill:#6A7370;}
	.st1{fill:#A09F9F;}
	.st2{fill:#848585;}
</style>
<polygon class="st0" points="595.79,252.23 605.37,973.31 820.83,1044.17 824.66,1788.72 796.41,1763.82 791.63,1110.25 
	609.2,1034.12 615.9,1584.27 595.79,1566.07 575.68,262.28 "/>
<polygon class="st1" points="888.77,1115.59 888.77,1774.44 820.83,1788.72 820.83,1044.17 1465.26,1005.09 1450.67,1674.36 
	1391.25,1684.78 1404.37,1075.9 "/>
<polygon class="st2" points="605.37,973.31 1168.91,945.35 1465.26,1005.09 820.83,1044.17 "/>
<polygon class="st1" points="595.79,252.23 1176.18,285.42 1168.91,945.35 605.37,973.31 "/>
<polygon class="st0" points="1370.58,1078.5 1356.42,1661.97 1391.25,1684.78 1404.37,1075.9 "/>
<polygon class="st0" points="1087.03,1100.33 1086.23,1497.17 1111.66,1511.38 1114.48,1098.21 "/>
<polygon class="st1" points="609.2,1034.12 670.84,1059.84 678.21,1578.43 615.9,1584.27 "/>
<polygon class="st1" points="1114.48,1098.21 1163.02,1094.48 1163.05,1507.9 1111.66,1511.38 "/>
</svg>
