{
	"asset":{
		"generator":"Khronos glTF Blender I/O v3.5.30",
		"version":"2.0"
	},
	"scene":0,
	"scenes":[
		{
			"name":"Scene",
			"nodes":[
				0
			]
		}
	],
	"nodes":[
		{
			"mesh":0,
			"name":"Cube"
		}
	],
	"meshes":[
		{
			"name":"Cube",
			"primitives":[
				{
					"attributes":{
						"POSITION":0,
						"TEXCOORD_0":1,
						"NORMAL":2
					},
					"indices":3
				}
			]
		}
	],
	"accessors":[
		{
			"bufferView":0,
			"componentType":5126,
			"count":170,
			"max":[
				1,
				4.199999809265137,
				1
			],
			"min":[
				-1,
				0,
				-1
			],
			"type":"VEC3"
		},
		{
			"bufferView":1,
			"componentType":5126,
			"count":170,
			"type":"VEC2"
		},
		{
			"bufferView":2,
			"componentType":5126,
			"count":170,
			"type":"VEC3"
		},
		{
			"bufferView":3,
			"componentType":5123,
			"count":402,
			"type":"SCALAR"
		}
	],
	"bufferViews":[
		{
			"buffer":0,
			"byteLength":2040,
			"byteOffset":0,
			"target":34962
		},
		{
			"buffer":0,
			"byteLength":1360,
			"byteOffset":2040,
			"target":34962
		},
		{
			"buffer":0,
			"byteLength":2040,
			"byteOffset":3400,
			"target":34962
		},
		{
			"buffer":0,
			"byteLength":804,
			"byteOffset":5440,
			"target":34963
		}
	],
	"buffers":[
		{
			"byteLength":6244,
			"uri":"chair.bin"
		}
	]
}
